<svg width="100.000000" height="29.000000" viewBox="0 0 100 29" fill="none" xmlns="http://www.w3.org/2000/svg" xmlns:xlink="http://www.w3.org/1999/xlink">
	<desc>
			Created with Pixso.
	</desc>
	<defs/>
	<rect id="back__COLOR:special-10" rx="14.500000" width="100.000000" height="29.000000" fill="#313131" fill-opacity="1.000000"/>
	<path id="text__COLOR:font-main" d="M23.13 10.15C24.89 10.15 26.32 11.21 26.64 13L25.59 13C25.33 11.79 24.29 11.14 23.13 11.14C21.55 11.14 20.3 12.37 20.3 14.63C20.3 16.9 21.55 18.12 23.13 18.12C24.29 18.12 25.33 17.48 25.59 16.27L26.64 16.27C26.32 18.06 24.89 19.12 23.13 19.12C20.9 19.12 19.28 17.39 19.28 14.63C19.28 11.87 20.9 10.15 23.13 10.15ZM33.84 15.76C33.84 17.79 32.64 19.13 30.87 19.13C29.1 19.13 27.9 17.79 27.9 15.76C27.9 13.71 29.1 12.37 30.87 12.37C32.64 12.37 33.84 13.71 33.84 15.76ZM42.58 21.45L41.57 21.45L41.57 12.45L42.55 12.45L42.55 13.49L42.67 13.49C42.89 13.15 43.28 12.37 44.56 12.37C46.21 12.37 47.35 13.68 47.35 15.74C47.35 17.82 46.21 19.13 44.57 19.13C43.31 19.13 42.89 18.35 42.67 17.99L42.58 17.99L42.58 21.45ZM52.76 18.11C52.55 18.54 51.95 19.15 50.81 19.15C49.57 19.15 48.58 18.41 48.58 17.14C48.58 15.64 49.91 15.37 51.12 15.21C52.31 15.06 52.81 15.1 52.81 14.62L52.81 14.58C52.81 13.74 52.35 13.25 51.43 13.25C50.47 13.25 49.94 13.76 49.72 14.24L48.77 13.9C49.28 12.71 50.4 12.37 51.39 12.37C52.23 12.37 53.81 12.6 53.81 14.68L53.81 19L52.81 19L52.81 18.11L52.76 18.11ZM34.69 12.45L35.85 12.45L37.41 15.12L38.98 12.45L40.14 12.45L38.03 15.72L40.14 19L38.98 19L37.41 16.45L35.85 19L34.69 19L36.77 15.72L34.69 12.45ZM55.65 12.45L56.66 12.45L56.66 15.26L59.8 15.26L59.8 12.45L60.8 12.45L60.8 19L59.8 19L59.8 16.2L56.66 16.2L56.66 19L55.65 19L55.65 12.45ZM63.65 12.45L63.65 17.51L66.8 12.45L67.96 12.45L67.96 19L66.95 19L66.95 13.93L63.82 19L62.64 19L62.64 12.45L63.65 12.45ZM71.08 13.39L68.91 13.39L68.91 12.45L74.23 12.45L74.23 13.39L72.08 13.39L72.08 19L71.08 19L71.08 13.39ZM76.7 12.45L76.7 14.82L78.44 14.82C79.98 14.82 80.81 15.69 80.81 16.88C80.81 18.06 79.98 19 78.44 19L75.7 19L75.7 12.45L76.7 12.45ZM28.91 15.76C28.91 17.07 29.52 18.23 30.87 18.23C32.22 18.23 32.83 17.07 32.83 15.76C32.83 14.45 32.22 13.27 30.87 13.27C29.52 13.27 28.91 14.45 28.91 15.76ZM44.44 13.27C43.21 13.27 42.56 14.26 42.56 15.72C42.56 17.2 43.23 18.23 44.44 18.23C45.7 18.23 46.35 17.12 46.35 15.72C46.35 14.34 45.72 13.27 44.44 13.27ZM49.59 17.19C49.59 17.89 50.17 18.25 50.97 18.25C52.16 18.25 52.81 17.45 52.81 16.62L52.81 15.71C52.64 15.91 51.49 16.03 51.07 16.08C50.28 16.18 49.59 16.42 49.59 17.19ZM78.44 15.76L76.7 15.76L76.7 18.06L78.44 18.06C79.24 18.06 79.81 17.59 79.81 16.93C79.81 16.24 79.24 15.76 78.44 15.76Z" fill="#FFFFFF" fill-opacity="1.000000" fill-rule="evenodd"/>
</svg>
